<svg width="22" height="22" viewBox="0 0 22 22" fill="none" xmlns="http://www.w3.org/2000/svg">
<path d="M13.2017 1.83333H6.5835C5.47893 1.83333 4.5835 2.72877 4.5835 3.83334V18.1667C4.5835 19.2712 5.47893 20.1667 6.58349 20.1667H16.6861C17.7906 20.1667 18.6861 19.2712 18.6861 18.1667V6.41667M13.2017 1.83333H13.955C14.4767 1.83333 14.9777 2.03716 15.3512 2.40133L18.1391 5.11951C18.4888 5.46048 18.6861 5.92823 18.6861 6.41667V6.41667M13.2017 1.83333V4.41667C13.2017 5.52124 14.0972 6.41667 15.2017 6.41667H18.6861M8.10914 11.3819H14.3769M8.10914 13.6736H14.3769M8.10914 15.9653H14.3769" stroke="#107386" stroke-width="1.5"/>
</svg>
