<svg width="4" height="4" viewBox="0 0 4 4" fill="none" xmlns="http://www.w3.org/2000/svg">
<path d="M2.09375 3.53125C1.77865 3.53125 1.49089 3.45443 1.23047 3.30078C0.970052 3.14453 0.761719 2.9362 0.605469 2.67578C0.451823 2.41536 0.375 2.1276 0.375 1.8125C0.375 1.49479 0.451823 1.20703 0.605469 0.949219C0.761719 0.688802 0.970052 0.481771 1.23047 0.328125C1.49089 0.171875 1.77865 0.0937498 2.09375 0.0937498C2.41146 0.0937498 2.69922 0.171875 2.95703 0.328125C3.21745 0.481771 3.42448 0.688802 3.57813 0.949219C3.73438 1.20703 3.8125 1.49479 3.8125 1.8125C3.8125 2.1276 3.73438 2.41536 3.57813 2.67578C3.42448 2.9362 3.21745 3.14453 2.95703 3.30078C2.69922 3.45443 2.41146 3.53125 2.09375 3.53125Z" fill="#DBDFE0"/>
</svg>
