<svg width="10" height="12" viewBox="0 0 10 12" fill="none" xmlns="http://www.w3.org/2000/svg">
<path d="M6.2806 0.66626H3.26636C2.16179 0.66626 1.26636 1.56169 1.26636 2.66626V9.33293C1.26636 10.4375 2.16179 11.3329 3.26636 11.3329H7.47149C8.57606 11.3329 9.47149 10.4375 9.47149 9.33293V3.33293M6.2806 0.66626H6.37865C6.90032 0.66626 7.40134 0.870084 7.77485 1.23426L9.15327 2.57822C9.35674 2.7766 9.47149 3.04875 9.47149 3.33293V3.33293M6.2806 0.66626V1.33293C6.2806 2.4375 7.17603 3.33293 8.2806 3.33293H9.47149M3.31764 6.22182H6.96436M3.31764 7.55515H6.96436M3.31764 8.88848H6.96436" stroke="white" stroke-width="0.8"/>
</svg>
