<svg width="14" height="14" viewBox="0 0 14 14" fill="none" xmlns="http://www.w3.org/2000/svg">
<path d="M6.99972 12.3329C9.94524 12.3329 12.3331 9.94511 12.3331 6.99959C12.3331 4.05408 9.94524 1.66626 6.99972 1.66626C4.0542 1.66626 1.66638 4.05408 1.66638 6.99959C1.66638 9.94511 4.0542 12.3329 6.99972 12.3329Z" stroke="white" stroke-width="0.8" stroke-linecap="round" stroke-linejoin="round"/>
<path d="M6.99974 10.1996C8.76706 10.1996 10.1997 8.76687 10.1997 6.99956C10.1997 5.23225 8.76706 3.79956 6.99974 3.79956C5.23243 3.79956 3.79974 5.23225 3.79974 6.99956C3.79974 8.76687 5.23243 10.1996 6.99974 10.1996Z" stroke="white" stroke-width="0.8" stroke-linecap="round" stroke-linejoin="round"/>
<path d="M6.99971 8.0662C7.58882 8.0662 8.06638 7.58863 8.06638 6.99953C8.06638 6.41042 7.58882 5.93286 6.99971 5.93286C6.41061 5.93286 5.93304 6.41042 5.93304 6.99953C5.93304 7.58863 6.41061 8.0662 6.99971 8.0662Z" stroke="white" stroke-width="0.8" stroke-linecap="round" stroke-linejoin="round"/>
</svg>
