<svg width="9" height="5" viewBox="0 0 9 5" fill="none" xmlns="http://www.w3.org/2000/svg">
<path d="M5.81259 1.72918L5.81259 2.35634C5.81261 2.64445 5.74472 2.92975 5.6128 3.19594C5.48088 3.46212 5.28751 3.70399 5.04374 3.90772C4.79997 4.11145 4.51057 4.27305 4.19207 4.3833C3.87357 4.49355 3.5322 4.55029 3.18745 4.55027L2.99998 4.55005C2.30375 4.55005 1.63604 4.31891 1.14373 3.90746C0.651423 3.49602 0.374848 2.93798 0.374848 2.35612C0.374848 1.77425 0.651424 1.21621 1.14373 0.80477C1.63604 0.393327 2.30375 0.162182 2.99998 0.162182L2.99998 0.789336C2.75307 0.788433 2.50837 0.828297 2.27993 0.906642C2.0515 0.984986 1.84383 1.10027 1.66885 1.24587C1.49387 1.39147 1.35502 1.56452 1.26028 1.75508C1.16554 1.94565 1.11677 2.14998 1.11677 2.35634C1.11677 2.5627 1.16554 2.76703 1.26028 2.95759C1.35502 3.14816 1.49387 3.32121 1.66885 3.46681C1.84383 3.61241 2.0515 3.72769 2.27993 3.80603C2.50837 3.88438 2.75306 3.92424 2.99998 3.92334L3.18772 3.92334C3.6849 3.92328 4.1617 3.75819 4.51326 3.46437C4.86482 3.17056 5.06236 2.77208 5.06244 2.35656V1.7294L5.81259 1.72963L5.81259 1.72918ZM6.00006 4.55005L6.00006 3.92334C6.24698 3.92424 6.49168 3.88438 6.72011 3.80603C6.94854 3.72769 7.15621 3.61241 7.33119 3.46681C7.50617 3.32121 7.64502 3.14816 7.73976 2.95759C7.8345 2.76703 7.88327 2.5627 7.88327 2.35634C7.88327 2.14998 7.8345 1.94565 7.73976 1.75508C7.64502 1.56452 7.50617 1.39147 7.33119 1.24587C7.15621 1.10027 6.94854 0.984986 6.72011 0.906641C6.49168 0.828297 6.24698 0.788433 6.00006 0.789336L5.81232 0.789336C5.31514 0.789399 4.83834 0.95449 4.48678 1.2483C4.13522 1.54212 3.93768 1.9406 3.93761 2.35612L3.93761 2.98327L3.18745 2.98305L3.18745 2.35634C3.18744 2.06822 3.25532 1.78292 3.38724 1.51674C3.51916 1.25055 3.71253 1.00869 3.9563 0.804959C4.20007 0.60123 4.48947 0.439627 4.80797 0.329376C5.12648 0.219126 5.46785 0.162388 5.81259 0.162403L6.00006 0.162624C6.69629 0.162624 7.364 0.39377 7.85631 0.805213C8.34862 1.21666 8.62519 1.77469 8.62519 2.35656C8.62519 2.93843 8.34862 3.49646 7.85631 3.90791C7.364 4.31935 6.69629 4.55049 6.00006 4.55049V4.55005Z" fill="#244D6F"/>
</svg>
