<svg width="22" height="21" viewBox="0 0 22 21" fill="none" xmlns="http://www.w3.org/2000/svg">
<path d="M4.334 3.04501C5.36073 2.12529 6.56669 1.428 7.876 0.997009C8.25038 1.46603 8.72567 1.84464 9.26652 2.10468C9.80737 2.36472 10.3999 2.4995 11 2.49901C11.6001 2.4995 12.1926 2.36472 12.7335 2.10468C13.2743 1.84464 13.7496 1.46603 14.124 0.997009C15.4333 1.428 16.6393 2.12529 17.666 3.04501C17.4475 3.60346 17.3576 4.20395 17.403 4.8019C17.4483 5.39985 17.6278 5.97991 17.928 6.49901C18.2276 7.0191 18.6406 7.46496 19.1363 7.80343C19.6319 8.1419 20.1975 8.36427 20.791 8.45401C21.0716 9.80291 21.0716 11.1951 20.791 12.544C19.631 12.722 18.561 13.404 17.928 14.499C17.6276 15.0182 17.4481 15.5985 17.4027 16.1966C17.3574 16.7947 17.4474 17.3954 17.666 17.954C16.6392 18.8734 15.4332 19.5703 14.124 20.001C13.7495 19.5322 13.2742 19.1538 12.7333 18.8939C12.1925 18.634 11.6 18.4994 11 18.5C10.3999 18.4995 9.80737 18.6343 9.26652 18.8943C8.72567 19.1544 8.25038 19.533 7.876 20.002C6.56677 19.5713 5.36082 18.8744 4.334 17.955C4.55265 17.3964 4.64264 16.7958 4.59728 16.1976C4.55193 15.5995 4.37239 15.0192 4.072 14.5C3.77229 13.9801 3.35925 13.5344 2.86359 13.1961C2.36792 12.8579 1.80238 12.6356 1.209 12.546C0.928318 11.1968 0.928318 9.80423 1.209 8.45501C1.80247 8.36527 2.36807 8.1429 2.86374 7.80443C3.35941 7.46596 3.77241 7.0201 4.072 6.50001C4.37223 5.98091 4.55169 5.40085 4.59704 4.8029C4.6424 4.20495 4.5525 3.60446 4.334 3.04601V3.04501ZM12.5 13.097C12.8439 12.9015 13.1458 12.6398 13.3882 12.3271C13.6306 12.0144 13.8088 11.6569 13.9124 11.2751C14.0161 10.8933 14.0432 10.4947 13.9922 10.1024C13.9412 9.71004 13.8131 9.33166 13.6153 8.98903C13.4175 8.64639 13.1538 8.34628 12.8395 8.10595C12.5253 7.86563 12.1665 7.68984 11.784 7.58871C11.4015 7.48759 11.0028 7.46312 10.6108 7.51672C10.2188 7.57031 9.84132 7.70092 9.5 7.90101C8.81658 8.30166 8.31938 8.95637 8.11689 9.72225C7.9144 10.4881 8.02307 11.303 8.41918 11.9891C8.81529 12.6752 9.46668 13.1767 10.2312 13.3843C10.9957 13.5918 11.8113 13.4886 12.5 13.097V13.097Z" fill="#215368"/>
</svg>
